<svg xmlns="http://www.w3.org/2000/svg" viewBox="0 0 32 32" width="32" height="32" role="img" aria-label="Mnemosyne favicon">
  <title>Mnemosyne favicon</title>
  <rect width="32" height="32" rx="6" fill="#0b0704"/>

  <circle cx="16" cy="16" r="14.4" fill="#0b0704" stroke="#c66a1d" stroke-width="1.6"/>
  <circle cx="16" cy="16" r="12.1" fill="none" stroke="#c66a1d" stroke-width="0.8" stroke-dasharray="2 1"/>

  <path d="M18.4 7.5c-3.1-.8-5.8.9-6.6 3.7-.6 2 .2 3.7 1.4 4.7-1.1.6-1.9 1.8-2 3.3l-.3 5.1h10.8l-.9-6c-.2-1.5-1-2.7-2.2-3.4 1.8-1.2 2.8-3.3 2.2-5.1-.3-1.1-1.1-1.9-2.4-2.3Z" fill="#c66a1d"/>
  <path d="M13.5 11.3c1.7-.6 3.5-.4 5 .6-1.7.5-3.2 1.6-4 3.2-.9-.8-1.3-2.2-1-3.8Z" fill="#0b0704" opacity=".96"/>
  <path d="M13.1 10.7c1.3-2.6 4.8-3.3 7-1.1" fill="none" stroke="#0b0704" stroke-width=".75" stroke-linecap="round"/>
  <path d="M18.4 7.2c2.5.1 4.2 2.3 3.7 4.4-.3 1.5-1.5 2.5-2.8 2.9 1.3-1.7.9-4.2-.9-7.3Z" fill="#c66a1d"/>
  <path d="M19.6 6.6c.9-.7 2.1-.1 2.2.9.1 1.1-1 1.9-2 1.4" fill="none" stroke="#c66a1d" stroke-width="1" stroke-linecap="round"/>

  <rect x="12.4" y="17.3" width="8.1" height="6.1" rx=".7" fill="#0b0704" stroke="#f0a13a" stroke-width=".9"/>
  <path d="M14.1 19.1h4.8M14.1 21h4.1" stroke="#f0a13a" stroke-width=".75" stroke-linecap="round"/>

  <path d="M10.7 17.7l4.2-2.8" stroke="#f0a13a" stroke-width=".8" stroke-linecap="round"/>

  <path d="M8.5 23.5c-1.3-2.6-1.1-5.4.7-7.7M23.6 23.3c1.2-2.6 1-5.4-.8-7.7" fill="none" stroke="#c66a1d" stroke-width=".8" stroke-linecap="round"/>
  <path d="M7.8 21.2l-1.6-.4M8.1 18.8l-1.5-.8M24.2 21.2l1.6-.4M23.9 18.8l1.5-.8" stroke="#c66a1d" stroke-width=".7" stroke-linecap="round"/>

  <path d="M5.8 6.8h4v1.3H7.1v1.2h2.7" fill="none" stroke="#c66a1d" stroke-width=".75" stroke-linejoin="round"/>
  <path d="M26.2 25.2h-4v-1.3h2.7v-1.2h-2.7" fill="none" stroke="#c66a1d" stroke-width=".75" stroke-linejoin="round"/>
</svg>
